<?xml version="1.0" encoding="UTF-8"?><svg xmlns="http://www.w3.org/2000/svg" xmlns:xlink="http://www.w3.org/1999/xlink" width="375pt" zoomAndPan="magnify" viewBox="0 0 375 374.999991" height="374.999991pt" preserveAspectRatio="xMidYMid meet" version="1.2"><defs><g/><clipPath xml:id="clip1" id="clip1"><path d="M 44 139 L 123 139 L 123 218 L 44 218 Z M 44 139 "/></clipPath><clipPath xml:id="clip2" id="clip2"><path d="M 31.761719 156.59375 L 95.117188 128.644531 L 127.613281 202.3125 L 64.261719 230.261719 Z M 31.761719 156.59375 "/></clipPath><clipPath xml:id="clip3" id="clip3"><path d="M 31.761719 156.59375 L 95.117188 128.644531 L 127.613281 202.3125 L 64.261719 230.261719 Z M 31.761719 156.59375 "/></clipPath><clipPath xml:id="clip4" id="clip4"><path d="M 73.335938 167.949219 C 69.542969 159.351562 69.011719 150.132812 71.203125 141.683594 C 71.496094 140.554688 70.367188 139.585938 69.285156 140.042969 C 69.132812 140.109375 68.972656 140.179688 68.816406 140.25 C 48.515625 149.203125 39.269531 172.84375 48.101562 193.121094 C 56.910156 213.347656 80.589844 222.707031 100.90625 213.976562 C 110.957031 209.65625 118.347656 201.753906 122.230469 192.425781 C 122.675781 191.351562 121.691406 190.234375 120.570312 190.535156 C 101.699219 195.609375 81.449219 186.339844 73.335938 167.949219 "/></clipPath></defs><g xml:id="surface1" id="surface1"><path style=" stroke:none;fill-rule:nonzero;fill:rgb(34.509277%,25.489807%,84.309387%);fill-opacity:1;" d="M 84.90625 124.128906 C 83.164062 124.128906 81.429688 124.214844 79.695312 124.386719 C 77.964844 124.554688 76.246094 124.8125 74.539062 125.148438 C 72.832031 125.488281 71.144531 125.914062 69.480469 126.417969 C 67.8125 126.921875 66.175781 127.507812 64.570312 128.175781 C 62.960938 128.839844 61.390625 129.582031 59.855469 130.402344 C 58.320312 131.222656 56.828125 132.117188 55.382812 133.085938 C 53.933594 134.050781 52.539062 135.085938 51.191406 136.191406 C 49.847656 137.296875 48.558594 138.464844 47.328125 139.695312 C 46.097656 140.925781 44.929688 142.210938 43.828125 143.558594 C 42.722656 144.902344 41.6875 146.300781 40.71875 147.746094 C 39.753906 149.195312 38.859375 150.683594 38.039062 152.21875 C 37.21875 153.753906 36.476562 155.324219 35.808594 156.933594 C 35.144531 158.542969 34.558594 160.179688 34.050781 161.84375 C 33.546875 163.507812 33.125 165.195312 32.785156 166.902344 C 32.445312 168.609375 32.191406 170.328125 32.019531 172.0625 C 31.847656 173.792969 31.765625 175.53125 31.765625 177.269531 C 31.765625 179.011719 31.847656 180.746094 32.019531 182.480469 C 32.191406 184.210938 32.445312 185.929688 32.785156 187.636719 C 33.125 189.34375 33.546875 191.03125 34.050781 192.695312 C 34.558594 194.359375 35.144531 195.996094 35.808594 197.605469 C 36.476562 199.214844 37.21875 200.785156 38.039062 202.320312 C 38.859375 203.855469 39.753906 205.347656 40.71875 206.792969 C 41.6875 208.242188 42.722656 209.636719 43.828125 210.980469 C 44.929688 212.328125 46.097656 213.617188 47.328125 214.847656 C 48.558594 216.078125 49.847656 217.242188 51.191406 218.347656 C 52.539062 219.453125 53.933594 220.488281 55.382812 221.453125 C 56.828125 222.421875 58.320312 223.316406 59.855469 224.136719 C 61.390625 224.957031 62.960938 225.699219 64.570312 226.367188 C 66.175781 227.03125 67.8125 227.617188 69.480469 228.121094 C 71.144531 228.628906 72.832031 229.050781 74.539062 229.390625 C 76.246094 229.730469 77.964844 229.984375 79.695312 230.15625 C 81.429688 230.324219 83.164062 230.410156 84.90625 230.410156 C 86.644531 230.410156 88.382812 230.324219 90.113281 230.15625 C 91.84375 229.984375 93.566406 229.730469 95.273438 229.390625 C 96.980469 229.050781 98.664062 228.628906 100.332031 228.121094 C 101.996094 227.617188 103.632812 227.03125 105.242188 226.367188 C 106.847656 225.699219 108.421875 224.957031 109.953125 224.136719 C 111.488281 223.316406 112.980469 222.421875 114.429688 221.453125 C 115.875 220.488281 117.269531 219.453125 118.617188 218.347656 C 119.960938 217.242188 121.25 216.078125 122.480469 214.847656 C 123.710938 213.617188 124.878906 212.328125 125.984375 210.980469 C 127.085938 209.636719 128.121094 208.242188 129.089844 206.792969 C 130.054688 205.347656 130.949219 203.855469 131.769531 202.320312 C 132.589844 200.785156 133.335938 199.214844 134 197.605469 C 134.667969 195.996094 135.25 194.359375 135.757812 192.695312 C 136.261719 191.03125 136.683594 189.34375 137.023438 187.636719 C 137.363281 185.929688 137.617188 184.210938 137.789062 182.480469 C 137.960938 180.746094 138.046875 179.011719 138.046875 177.269531 C 138.046875 175.53125 137.960938 173.792969 137.789062 172.0625 C 137.617188 170.328125 137.363281 168.609375 137.023438 166.902344 C 136.683594 165.195312 136.261719 163.507812 135.757812 161.84375 C 135.25 160.179688 134.667969 158.542969 134 156.933594 C 133.335938 155.324219 132.589844 153.753906 131.769531 152.21875 C 130.949219 150.683594 130.054688 149.195312 129.089844 147.746094 C 128.121094 146.300781 127.085938 144.902344 125.984375 143.558594 C 124.878906 142.210938 123.710938 140.925781 122.480469 139.695312 C 121.25 138.464844 119.960938 137.296875 118.617188 136.191406 C 117.269531 135.085938 115.875 134.050781 114.429688 133.085938 C 112.980469 132.117188 111.488281 131.222656 109.953125 130.402344 C 108.421875 129.582031 106.847656 128.839844 105.242188 128.175781 C 103.632812 127.507812 101.996094 126.921875 100.332031 126.417969 C 98.664062 125.914062 96.980469 125.488281 95.273438 125.148438 C 93.566406 124.8125 91.84375 124.554688 90.113281 124.386719 C 88.382812 124.214844 86.644531 124.128906 84.90625 124.128906 Z M 84.90625 124.128906 "/><g clip-rule="nonzero" clip-path="url(#clip1)"><g clip-rule="nonzero" clip-path="url(#clip2)"><g clip-rule="nonzero" clip-path="url(#clip3)"><g clip-rule="nonzero" clip-path="url(#clip4)"><path style=" stroke:none;fill-rule:nonzero;fill:rgb(100%,100%,100%);fill-opacity:1;" d="M 8.578125 153.125 L 52.855469 253.507812 L 153.371094 209.167969 L 109.089844 108.785156 Z M 8.578125 153.125 "/></g></g></g></g><g style="fill:rgb(34.509277%,25.489807%,84.309387%);fill-opacity:1;"><g transform="translate(154.053891, 208.939556)"><path style="stroke:none;" d="M 38.4375 -13.625 L 57.625 -57.453125 L 66.46875 -57.453125 L 69.6875 0 L 60.828125 0 L 58.484375 -49.375 L 58.140625 -49.375 L 36.28125 0 L 35.0625 0 L 13.625 -47.375 L 13.28125 -47.375 L 10.9375 0 L 7.109375 0 L 10.328125 -57.453125 L 18.390625 -57.453125 Z M 38.4375 -13.625 "/></g></g><g style="fill:rgb(34.509277%,25.489807%,84.309387%);fill-opacity:1;"><g transform="translate(231.188598, 208.939556)"><path style="stroke:none;" d="M 23.25 -40.265625 C 28.34375 -40.265625 32.550781 -38.53125 35.875 -35.0625 C 39.207031 -31.59375 40.875 -26.816406 40.875 -20.734375 C 40.875 -16.859375 40.207031 -13.445312 38.875 -10.5 C 37.539062 -7.550781 35.804688 -5.265625 33.671875 -3.640625 C 29.566406 -0.515625 24.984375 1.046875 19.921875 1.046875 C 14.859375 1.046875 10.660156 -0.6875 7.328125 -4.15625 C 4.003906 -7.632812 2.34375 -12.410156 2.34375 -18.484375 C 2.34375 -22.359375 2.992188 -25.769531 4.296875 -28.71875 C 5.597656 -31.675781 7.316406 -33.960938 9.453125 -35.578125 C 13.566406 -38.703125 18.164062 -40.265625 23.25 -40.265625 Z M 21.515625 -1.90625 C 24.066406 -1.90625 26.238281 -2.890625 28.03125 -4.859375 C 31.269531 -8.328125 32.890625 -12.941406 32.890625 -18.703125 C 32.890625 -24.460938 31.90625 -28.945312 29.9375 -32.15625 C 27.96875 -35.363281 24.757812 -36.96875 20.3125 -36.96875 C 17.007812 -35.695312 14.503906 -33.453125 12.796875 -30.234375 C 11.085938 -27.023438 10.234375 -23.148438 10.234375 -18.609375 C 10.234375 -14.066406 11.160156 -10.144531 13.015625 -6.84375 C 14.867188 -3.550781 17.703125 -1.90625 21.515625 -1.90625 Z M 21.515625 -1.90625 "/></g></g><g style="fill:rgb(34.509277%,25.489807%,84.309387%);fill-opacity:1;"><g transform="translate(274.571453, 208.939556)"><path style="stroke:none;" d="M 23.25 -40.265625 C 28.34375 -40.265625 32.550781 -38.53125 35.875 -35.0625 C 39.207031 -31.59375 40.875 -26.816406 40.875 -20.734375 C 40.875 -16.859375 40.207031 -13.445312 38.875 -10.5 C 37.539062 -7.550781 35.804688 -5.265625 33.671875 -3.640625 C 29.566406 -0.515625 24.984375 1.046875 19.921875 1.046875 C 14.859375 1.046875 10.660156 -0.6875 7.328125 -4.15625 C 4.003906 -7.632812 2.34375 -12.410156 2.34375 -18.484375 C 2.34375 -22.359375 2.992188 -25.769531 4.296875 -28.71875 C 5.597656 -31.675781 7.316406 -33.960938 9.453125 -35.578125 C 13.566406 -38.703125 18.164062 -40.265625 23.25 -40.265625 Z M 21.515625 -1.90625 C 24.066406 -1.90625 26.238281 -2.890625 28.03125 -4.859375 C 31.269531 -8.328125 32.890625 -12.941406 32.890625 -18.703125 C 32.890625 -24.460938 31.90625 -28.945312 29.9375 -32.15625 C 27.96875 -35.363281 24.757812 -36.96875 20.3125 -36.96875 C 17.007812 -35.695312 14.503906 -33.453125 12.796875 -30.234375 C 11.085938 -27.023438 10.234375 -23.148438 10.234375 -18.609375 C 10.234375 -14.066406 11.160156 -10.144531 13.015625 -6.84375 C 14.867188 -3.550781 17.703125 -1.90625 21.515625 -1.90625 Z M 21.515625 -1.90625 "/></g></g><g style="fill:rgb(34.509277%,25.489807%,84.309387%);fill-opacity:1;"><g transform="translate(317.954309, 208.939556)"><path style="stroke:none;" d="M 14.0625 -33.671875 C 16.488281 -35.984375 18.613281 -37.660156 20.4375 -38.703125 C 22.257812 -39.742188 24.414062 -40.265625 26.90625 -40.265625 C 29.394531 -40.265625 31.691406 -39.28125 33.796875 -37.3125 C 35.910156 -35.34375 36.96875 -31.957031 36.96875 -27.15625 L 36.96875 0 L 29.59375 0 L 29.59375 -26.296875 C 29.59375 -29.128906 29.085938 -31.253906 28.078125 -32.671875 C 27.066406 -34.085938 25.328125 -34.796875 22.859375 -34.796875 C 20.398438 -34.796875 17.550781 -33.175781 14.3125 -29.9375 L 14.3125 0 L 6.9375 0 L 6.9375 -27.25 C 6.9375 -31.1875 5.460938 -34.335938 2.515625 -36.703125 L 6.9375 -40 Z M 14.0625 -33.671875 "/></g></g></g></svg>